<svg width="71" height="52" viewBox="0 0 71 52" fill="none" xmlns="http://www.w3.org/2000/svg">
<path d="M30.2535 42.0529C29.1552 42.1612 28.1749 42.2869 27.1436 42.6252C26.3058 42.8999 25.6945 43.7603 24.8699 44.1058C22.1846 45.2308 17.041 44.1117 16.4429 40.8511C16.1087 39.0288 17.2702 38.077 18.1901 36.6509C18.8591 35.6137 19.8217 34.8012 19.2012 33.507C18.4361 31.9109 16.9527 31.0868 15.6555 30.0224C14.2229 28.8469 13.9656 27.5921 13.7929 25.8406C13.536 23.2336 16.3302 21.043 18.8215 21.4965C20.0824 21.726 21.4104 21.7385 22.4552 22.5958C23.4494 23.4116 24.1856 24.4862 25.1851 25.3064C25.5963 25.6438 26.2128 25.9568 26.5637 26.3265C26.9238 26.7059 27.4454 26.8491 27.8814 27.1659C28.8802 27.8917 30.189 28.1534 31.2199 28.84C32.3338 29.5817 34.1222 30.1343 35.4304 30.3276C37.177 30.5857 38.7187 30.4917 40.4699 30.3191C41.8878 30.1793 43.1858 29.796 44.5026 29.2753C45.6806 28.8095 47.0927 28.3579 47.9351 27.3861C48.6717 26.5363 49.6908 25.6242 50.6068 24.9903C51.3425 24.4812 52.1176 24.3891 52.9945 24.3026C53.6247 24.2405 54.7074 24.1338 55.3453 24.5232C55.9833 24.9127 56.4872 25.5739 56.8415 25.9625C57.3908 26.7453 56.8415 25.9625 57.3072 26.7536C58.0356 28.1891 57.5759 29.4798 57.7175 30.9165C57.7793 31.5431 57.4432 32.3026 57.2064 32.8695C56.7284 34.0139 56.3486 35.1511 55.6553 36.2175C54.9791 37.2575 54.1083 38.1506 53.3263 39.1036C52.8434 39.6922 52.4252 40.3227 51.7549 40.7161C50.5702 41.4113 49.4864 42.2235 48.2687 42.8619C46.6157 43.7285 45.1807 45.1426 43.3469 45.6662C42.4327 45.9272 41.4917 45.9855 40.5372 46.0795C38.8019 46.2506 36.327 44.9058 35.0246 43.8371C34.4425 43.3595 33.7038 43.0541 33.1195 42.5746C32.9058 42.3992 32.5288 42.1528 32.2691 42.1056C32.1281 42.0799 32.0759 41.8919 31.9175 41.8889C31.4707 41.8805 30.6147 42.0173 30.7591 42.0031" stroke="black" stroke-width="2.5" stroke-linecap="round"/>
<path d="M3.76458 8.52944C3.41148 7.649 3.30372 6.39845 3.35941 5.46113C3.41867 4.46365 3.89953 3.29502 4.53827 2.48026C5.04976 1.82782 5.47638 1.55642 6.32849 1.60704C7.08888 1.65222 7.9461 2.14053 8.43968 2.71205C9.4431 3.8739 9.71537 5.05592 9.62734 6.53765C9.54115 7.98839 8.72304 9.49039 7.20448 9.86455C6.03685 10.1522 4.24269 9.72158 3.76458 8.52944Z" stroke="black" stroke-width="2.5" stroke-linecap="round"/>
<path d="M68.7972 12.3943C69.252 11.5617 69.507 10.3325 69.5627 9.395C69.622 8.39732 69.283 7.17976 68.7453 6.29495C68.3147 5.5864 67.9233 5.26635 67.0712 5.21573C66.3109 5.17056 65.402 5.55402 64.8443 6.06319C63.7105 7.09827 63.3002 8.23996 63.2122 9.72197C63.126 11.173 63.7604 12.7616 65.2238 13.313C66.349 13.737 68.1813 13.5217 68.7972 12.3943Z" stroke="black" stroke-width="2.5" stroke-linecap="round"/>
</svg>
