<svg width="45" height="32" viewBox="0 0 45 32" fill="none" xmlns="http://www.w3.org/2000/svg">
<rect width="45" height="32" fill="#DC9EB8"/>
<path d="M20.6885 25.0342C20.2119 25.1099 19.7872 25.1902 19.3459 25.3646C18.9873 25.5063 18.7428 25.8977 18.3918 26.0699C17.2488 26.6306 14.9746 26.2755 14.629 24.8677C14.4358 24.0809 14.9181 23.6354 15.2827 22.989C15.5478 22.5189 15.9469 22.1393 15.6425 21.5904C15.2672 20.9136 14.5983 20.5923 14.0044 20.1614C13.3486 19.6854 13.2038 19.1444 13.083 18.3843C12.9032 17.253 14.0661 16.2243 15.1653 16.3576C15.7216 16.4251 16.3016 16.3961 16.7799 16.7433C17.2351 17.0736 17.5843 17.5236 18.0418 17.8557C18.2301 17.9923 18.5073 18.1129 18.6701 18.2652C18.8371 18.4215 19.0685 18.4704 19.267 18.5974C19.7218 18.8883 20.2999 18.9687 20.7677 19.2416C21.2732 19.5365 22.0682 19.7313 22.6442 19.7818C23.4133 19.8491 24.0838 19.7681 24.8437 19.6473C25.459 19.5496 26.0157 19.3486 26.577 19.0872C27.0791 18.8533 27.6838 18.6195 28.0263 18.1735C28.3258 17.7834 28.747 17.3589 29.1304 17.0584C29.4383 16.8171 29.7742 16.7568 30.1548 16.6963C30.4283 16.6529 30.8981 16.5782 31.1866 16.7317C31.4752 16.8851 31.7123 17.1607 31.877 17.3211C32.1371 17.6486 31.877 17.3211 32.1008 17.6543C32.456 18.262 32.2888 18.8374 32.3879 19.4608C32.4311 19.7328 32.3041 20.073 32.2155 20.3266C32.0365 20.8385 31.9002 21.3448 31.6252 21.8282C31.357 22.2997 31.0001 22.7122 30.6834 23.1485C30.4879 23.4179 30.3217 23.704 30.0393 23.893C29.5402 24.2272 29.0882 24.6099 28.5733 24.9201C27.8742 25.3413 27.2845 25.9957 26.4976 26.2718C26.1053 26.4095 25.6961 26.4593 25.2818 26.5251C24.5288 26.6448 23.4136 26.122 22.8174 25.6893C22.5509 25.4959 22.2206 25.3817 21.9531 25.1876C21.8552 25.1166 21.6843 25.0188 21.5697 25.0049C21.5075 24.9973 21.4798 24.9166 21.4106 24.9194C21.2154 24.9274 20.8453 25.0093 20.9079 24.9993" stroke="#26399F" stroke-width="0.8" stroke-linecap="round"/>
<path d="M8.25643 11.0882C8.07947 10.713 8 10.1699 8 9.75933C8 9.32238 8.17959 8.7998 8.43728 8.42759C8.64363 8.12953 8.82281 8 9.19607 8C9.52916 8 9.916 8.19092 10.1463 8.42759C10.6144 8.90872 10.7639 9.41762 10.7639 10.0667C10.7639 10.7022 10.4457 11.379 9.79259 11.5817C9.29037 11.7376 8.49604 11.5961 8.25643 11.0882Z" stroke="#26399F" stroke-width="0.8" stroke-linecap="round"/>
<path d="M36.7436 11.0887C36.9205 10.7135 37 10.1703 37 9.75966C37 9.32263 36.8204 8.79995 36.5628 8.42767C36.3565 8.12955 36.1773 8 35.8041 8C35.471 8 35.0842 8.19096 34.854 8.42767C34.3859 8.90889 34.2364 9.41789 34.2364 10.0671C34.2364 10.7027 34.5545 11.3797 35.2076 11.5824C35.7098 11.7383 36.504 11.5968 36.7436 11.0887Z" stroke="#26399F" stroke-width="0.8" stroke-linecap="round"/>
</svg>
