<svg width="460" height="53" viewBox="0 0 460 53" fill="none" xmlns="http://www.w3.org/2000/svg">
<rect x="1.73579" y="39.8221" width="457.184" height="4.38244" transform="rotate(-4.64 1.73579 39.8221)" fill="white" stroke="black"/>
<path d="M92.0016 44.589L92.3885 44.9269L92.7158 44.531L99.7647 36.0052L100.519 35.0925L99.3389 35.1883L83.9585 36.4366L82.7781 36.5324L83.6701 37.3115L92.0016 44.589Z" fill="white" stroke="black"/>
<path d="M238.42 32.7054L238.807 33.0434L239.134 32.6474L246.183 24.1217L246.938 23.2089L245.757 23.3047L230.377 24.553L229.196 24.6488L230.088 25.428L238.42 32.7054Z" fill="white" stroke="black"/>
<path d="M108.27 43.2687L108.657 43.6066L108.984 43.2107L116.033 34.6849L116.788 33.7722L115.607 33.868L100.227 35.1163L99.0464 35.2121L99.9384 35.9912L108.27 43.2687Z" fill="white" stroke="black"/>
<path d="M254.688 31.3851L255.075 31.7231L255.402 31.3271L262.451 22.8014L263.206 21.8886L262.025 21.9844L246.645 23.2327L245.465 23.3285L246.357 24.1076L254.688 31.3851Z" fill="white" stroke="black"/>
<path d="M124.538 41.9481L124.925 42.2861L125.253 41.8901L132.302 33.3644L133.056 32.4516L131.876 32.5474L116.495 33.7957L115.315 33.8915L116.207 34.6706L124.538 41.9481Z" fill="white" stroke="black"/>
<path d="M270.957 30.0648L271.344 30.4028L271.671 30.0068L278.72 21.4811L279.475 20.5683L278.294 20.6641L262.914 21.9124L261.734 22.0082L262.626 22.7873L270.957 30.0648Z" fill="white" stroke="black"/>
<path d="M140.808 40.6278L141.195 40.9658L141.522 40.5698L148.571 32.0441L149.325 31.1313L148.145 31.2271L132.765 32.4754L131.584 32.5712L132.476 33.3503L140.808 40.6278Z" fill="white" stroke="black"/>
<path d="M287.226 28.7445L287.613 29.0825L287.94 28.6865L294.989 20.1608L295.744 19.248L294.563 19.3438L279.183 20.5921L278.002 20.6879L278.894 21.467L287.226 28.7445Z" fill="white" stroke="black"/>
<path d="M157.076 39.3075L157.463 39.6454L157.79 39.2495L164.839 30.7238L165.594 29.811L164.414 29.9068L149.033 31.1551L147.853 31.2509L148.745 32.03L157.076 39.3075Z" fill="white" stroke="black"/>
<path d="M303.494 27.4239L303.881 27.7619L304.208 27.366L311.257 18.8402L312.012 17.9274L310.831 18.0232L295.451 19.2715L294.271 19.3673L295.163 20.1465L303.494 27.4239Z" fill="white" stroke="black"/>
<path d="M173.345 37.9872L173.732 38.3251L174.059 37.9292L181.108 29.4034L181.863 28.4907L180.682 28.5865L165.302 29.8348L164.122 29.9306L165.014 30.7097L173.345 37.9872Z" fill="white" stroke="black"/>
<path d="M319.763 26.1036L320.15 26.4416L320.477 26.0456L327.526 17.5199L328.281 16.6071L327.101 16.7029L311.72 17.9512L310.54 18.047L311.432 18.8262L319.763 26.1036Z" fill="white" stroke="black"/>
<path d="M384.838 20.8221L385.225 21.1601L385.552 20.7641L392.601 12.2384L393.356 11.3256L392.175 11.4214L376.795 12.6697L375.615 12.7655L376.507 13.5447L384.838 20.8221Z" fill="white" stroke="black"/>
<path d="M189.613 36.6666L190 37.0046L190.328 36.6086L197.377 28.0829L198.131 27.1701L196.951 27.2659L181.57 28.5142L180.39 28.61L181.282 29.3891L189.613 36.6666Z" fill="white" stroke="black"/>
<path d="M336.032 24.7833L336.419 25.1213L336.746 24.7253L343.795 16.1996L344.55 15.2868L343.369 15.3826L327.989 16.6309L326.808 16.7267L327.7 17.5058L336.032 24.7833Z" fill="white" stroke="black"/>
<path d="M401.106 19.5018L401.493 19.8398L401.82 19.4438L408.869 10.9181L409.624 10.0053L408.444 10.1011L393.063 11.3494L391.883 11.4452L392.775 12.2243L401.106 19.5018Z" fill="white" stroke="black"/>
<path d="M205.882 35.3463L206.269 35.6843L206.597 35.2883L213.645 26.7626L214.4 25.8498L213.22 25.9456L197.839 27.1939L196.659 27.2897L197.551 28.0688L205.882 35.3463Z" fill="white" stroke="black"/>
<path d="M352.3 23.463L352.687 23.801L353.015 23.405L360.063 14.8793L360.818 13.9665L359.638 14.0623L344.257 15.3106L343.077 15.4064L343.969 16.1855L352.3 23.463Z" fill="white" stroke="black"/>
<path d="M417.375 18.1815L417.762 18.5195L418.089 18.1235L425.138 9.59778L425.893 8.68501L424.712 8.78082L409.332 10.0291L408.152 10.1249L409.044 10.904L417.375 18.1815Z" fill="white" stroke="black"/>
<path d="M222.151 34.026L222.538 34.364L222.865 33.968L229.914 25.4423L230.669 24.5295L229.488 24.6253L214.108 25.8736L212.927 25.9694L213.819 26.7485L222.151 34.026Z" fill="white" stroke="black"/>
<path d="M368.569 22.1424L368.956 22.4804L369.283 22.0845L376.332 13.5587L377.087 12.6459L375.906 12.7418L360.526 13.99L359.345 14.0858L360.237 14.865L368.569 22.1424Z" fill="white" stroke="black"/>
<path d="M433.643 16.8609L434.03 17.1989L434.358 16.803L441.406 8.27722L442.161 7.36445L440.981 7.46026L425.6 8.70854L424.42 8.80435L425.312 9.58348L433.643 16.8609Z" fill="white" stroke="black"/>
<path d="M75.733 45.9093L76.1199 46.2473L76.4472 45.8513L83.4961 37.3256L84.2508 36.4128L83.0703 36.5086L67.6899 37.7569L66.5095 37.8527L67.4015 38.6318L75.733 45.9093Z" fill="white" stroke="black"/>
<path d="M449.913 15.5406L450.3 15.8786L450.627 15.4827L457.676 6.95691L458.43 6.04414L457.25 6.13995L441.87 7.38823L440.689 7.48404L441.581 8.26316L449.913 15.5406Z" fill="white" stroke="black"/>
<path d="M59.4641 47.2296L59.851 47.5676L60.1784 47.1716L67.2273 38.6459L67.9819 37.7331L66.8015 37.8289L51.4211 39.0772L50.2406 39.173L51.1326 39.9521L59.4641 47.2296Z" fill="white" stroke="black"/>
<path d="M43.1955 48.5501L43.5824 48.8881L43.9098 48.4922L50.9587 39.9664L51.7133 39.0537L50.5329 39.1495L35.1525 40.3978L33.972 40.4936L34.864 41.2727L43.1955 48.5501Z" fill="white" stroke="black"/>
<path d="M26.9269 49.8705L27.3138 50.2084L27.6412 49.8125L34.6901 41.2867L35.4448 40.374L34.2643 40.4698L18.8839 41.7181L17.7035 41.8139L18.5954 42.593L26.9269 49.8705Z" fill="white" stroke="black"/>
<path d="M10.4804 51.2052L10.8674 51.5431L11.1947 51.1472L18.2436 42.6215L18.9983 41.7087L17.8178 41.8045L2.43742 43.0528L1.25697 43.1486L2.14894 43.9277L10.4804 51.2052Z" fill="white" stroke="black"/>
<path d="M1.32012 37.6038L456.822 0.63484L457.309 6.63322L2.80369 43.5212C2.25321 43.5659 1.77074 43.1559 1.72606 42.6054L1.32012 37.6038Z" fill="white"/>
</svg>
