<svg width="44" height="45" viewBox="0 0 44 45" fill="none" xmlns="http://www.w3.org/2000/svg">
<g filter="url(#filter0_d_3_3141)">
<rect width="44" height="44" rx="5" fill="#AEB3BE" shape-rendering="crispEdges"/>
<path fill-rule="evenodd" clip-rule="evenodd" d="M19.0362 22.2425V28.2491H24.9631V22.2425H28.8741L21.9999 15.1442L15.1259 22.2425H19.0362ZM21.6411 13.5021C21.8375 13.2994 22.1625 13.2994 22.3588 13.5021L31.358 22.7949C31.6654 23.1122 31.4408 23.6435 30.9992 23.6435H26.3624V29.1498C26.3624 29.4261 26.1387 29.6501 25.8627 29.6501H18.1366C17.8606 29.6501 17.6368 29.4261 17.6368 29.1498V23.6435H13.0007C12.5592 23.6435 12.3346 23.1122 12.642 22.7949L21.6411 13.5021Z" fill="black"/>
</g>
<defs>
<filter id="filter0_d_3_3141" x="0" y="0" width="44" height="45" filterUnits="userSpaceOnUse" color-interpolation-filters="sRGB">
<feFlood flood-opacity="0" result="BackgroundImageFix"/>
<feColorMatrix in="SourceAlpha" type="matrix" values="0 0 0 0 0 0 0 0 0 0 0 0 0 0 0 0 0 0 127 0" result="hardAlpha"/>
<feOffset dy="1"/>
<feComposite in2="hardAlpha" operator="out"/>
<feColorMatrix type="matrix" values="0 0 0 0 0 0 0 0 0 0 0 0 0 0 0 0 0 0 0.3 0"/>
<feBlend mode="normal" in2="BackgroundImageFix" result="effect1_dropShadow_3_3141"/>
<feBlend mode="normal" in="SourceGraphic" in2="effect1_dropShadow_3_3141" result="shape"/>
</filter>
</defs>
</svg>
