<svg width="393" height="72" viewBox="0 0 393 72" fill="none" xmlns="http://www.w3.org/2000/svg">
<rect x="124.188" y="59" width="144.624" height="5" rx="2.5" fill="black"/>
<path fill-rule="evenodd" clip-rule="evenodd" d="M348.998 17C346.345 17 344.185 19.1535 344.185 21.81V32.949C344.185 35.6059 346.34 37.759 348.998 37.759C351.65 37.759 353.81 35.6055 353.81 32.949V21.81C353.81 19.1531 351.655 17 348.998 17ZM346.248 21.8036V32.9554C346.248 34.4574 347.479 35.6957 348.998 35.6957C350.527 35.6957 351.747 34.4688 351.747 32.9554V21.8036C351.747 20.3017 350.516 19.0634 348.998 19.0634C347.468 19.0634 346.248 20.2902 346.248 21.8036Z" fill="#50545B"/>
<path d="M350.125 43.4366V40.5604C355.375 40.2602 357.625 35.9539 357.625 31.7458V29.8057C357.626 29.7905 357.626 29.7753 357.625 29.76L357.625 29.7368C357.625 29.167 357.16 28.7051 356.59 28.7051C356.02 28.7051 355.57 29.167 355.57 29.7368V31.7448C355.57 35.9533 353.875 38.8346 349.075 38.8346C344.875 38.8346 342.438 35.9533 342.438 31.7448V29.8057C342.438 29.2358 341.976 28.774 341.406 28.774C340.837 28.774 340.375 29.2358 340.375 29.8057V31.7458C340.375 35.9586 343.375 40.2602 348.025 40.5604V43.4366H344.16C343.598 43.4366 343.125 43.8986 343.125 44.4683C343.125 45.0421 343.588 45.5 344.16 45.5H353.875C354.437 45.5 354.925 45.0381 354.925 44.4683C354.925 43.8945 354.446 43.4366 353.875 43.4366H350.125Z" fill="#50545B"/>
<path fill-rule="evenodd" clip-rule="evenodd" d="M44 47C35.7157 47 29 40.2843 29 32C29 23.7157 35.7157 17 44 17C52.2843 17 59 23.7157 59 32C59 40.2843 52.2843 47 44 47ZM44 45.5C51.4558 45.5 57.5 39.4558 57.5 32C57.5 24.5442 51.4558 18.5 44 18.5C36.5442 18.5 30.5 24.5442 30.5 32C30.5 39.4558 36.5442 45.5 44 45.5ZM43.9822 42.5C38.6363 42.5 33.5626 37.3727 33.5626 33.6672C33.5626 31.5406 38.1832 34.1 43.9822 34.1C49.7812 34.1 54.4529 31.5441 54.4374 33.6672C54.4112 37.258 49.3282 42.5 43.9822 42.5ZM43.9822 37.775C48.9528 37.775 52.3913 35.8535 52.3913 34.4677C52.3913 33.082 48.9528 35.294 43.9822 35.294C39.0117 35.294 35.6303 33.3475 35.6303 34.4677C35.6303 35.588 39.0117 37.775 43.9822 37.775ZM39.4813 29.3375C38.4975 29.3375 37.7 28.54 37.7 27.5562C37.7 26.5725 38.4975 25.775 39.4813 25.775C40.465 25.775 41.2625 26.5725 41.2625 27.5562C41.2625 28.54 40.465 29.3375 39.4813 29.3375ZM48.4813 29.3375C47.4975 29.3375 46.7 28.54 46.7 27.5562C46.7 26.5725 47.4975 25.775 48.4813 25.775C49.465 25.775 50.2625 26.5725 50.2625 27.5562C50.2625 28.54 49.465 29.3375 48.4813 29.3375Z" fill="#50545B"/>
</svg>
