<svg width="44" height="45" viewBox="0 0 44 45" fill="none" xmlns="http://www.w3.org/2000/svg">
<g filter="url(#filter0_d_3_3144)">
<rect width="44" height="44" rx="5" fill="#AEB3BE" shape-rendering="crispEdges"/>
<path d="M21.2144 19.5251C20.9215 19.2322 20.9215 18.7574 21.2144 18.4645C21.5073 18.1716 21.9822 18.1716 22.275 18.4645L24.75 20.9394L27.2249 18.4645C27.5177 18.1716 27.9926 18.1716 28.2855 18.4645C28.5784 18.7573 28.5784 19.2322 28.2855 19.5251L25.8105 22L28.2855 24.4749C28.5784 24.7678 28.5784 25.2427 28.2855 25.5355C27.9926 25.8284 27.5177 25.8284 27.2249 25.5355L24.75 23.0607L22.275 25.5355C21.9822 25.8284 21.5073 25.8284 21.2145 25.5355C20.9215 25.2426 20.9215 24.7678 21.2145 24.4749L23.6893 22.0001L21.2144 19.5251Z" fill="black"/>
<path fill-rule="evenodd" clip-rule="evenodd" d="M18.1213 14.3787L10.5 22L18.1213 29.6213C18.684 30.184 19.447 30.5 20.2427 30.5H30.5C32.1569 30.5 33.5 29.1569 33.5 27.5V16.5C33.5 14.8431 32.1569 13.5 30.5 13.5H20.2427C19.447 13.5 18.684 13.8161 18.1213 14.3787ZM30.5 29.2H20.2427C19.7917 29.2 19.3594 29.0209 19.0405 28.7021L12.3385 22L19.0405 15.2979C19.3594 14.9791 19.7917 14.8 20.2427 14.8H30.5C31.4388 14.8 32.2 15.5611 32.2 16.5V27.5C32.2 28.4389 31.4388 29.2 30.5 29.2Z" fill="black"/>
</g>
<defs>
<filter id="filter0_d_3_3144" x="0" y="0" width="44" height="45" filterUnits="userSpaceOnUse" color-interpolation-filters="sRGB">
<feFlood flood-opacity="0" result="BackgroundImageFix"/>
<feColorMatrix in="SourceAlpha" type="matrix" values="0 0 0 0 0 0 0 0 0 0 0 0 0 0 0 0 0 0 127 0" result="hardAlpha"/>
<feOffset dy="1"/>
<feComposite in2="hardAlpha" operator="out"/>
<feColorMatrix type="matrix" values="0 0 0 0 0 0 0 0 0 0 0 0 0 0 0 0 0 0 0.3 0"/>
<feBlend mode="normal" in2="BackgroundImageFix" result="effect1_dropShadow_3_3144"/>
<feBlend mode="normal" in="SourceGraphic" in2="effect1_dropShadow_3_3144" result="shape"/>
</filter>
</defs>
</svg>
